<svg xmlns="http://www.w3.org/2000/svg" viewBox="0 0 1003 482.84"><defs><style>.cls-1{fill:none;stroke:#f7941d;stroke-miterlimit:10;stroke-width:3px;}</style></defs><title>line</title><g id="Layer_2" data-name="Layer 2"><g id="Layer_1-2" data-name="Layer 1"><polyline class="cls-1" points="99.26 0 99.26 26.87 309.71 26.87 309.71 0"/><polyline class="cls-1" points="587.32 0 587.32 26.87 797.77 26.87 797.77 0"/><polyline class="cls-1" points="174.63 414.64 174.63 448.51 385.08 448.51 385.08 421.64 385.08 294.03 385.08 267.16 595.53 267.16 595.53 310.03"/><polyline class="cls-1" points="204.49 26.87 204.49 235.07 1.5 235.07 1.5 202.24"/><polyline class="cls-1" points="204.49 58.95 391.05 58.95 391.05 235.07 594.04 235.07 594.04 58.95 788.07 58.95 788.07 235.07 1001.5 235.07 1001.5 201.19"/><line class="cls-1" x1="690.31" y1="58.96" x2="690.31" y2="26.87"/><line class="cls-1" x1="490.31" y1="235.07" x2="490.31" y2="267.16"/><line class="cls-1" x1="274.63" y1="448.51" x2="274.63" y2="482.84"/><line class="cls-1" x1="892.74" y1="235.07" x2="892.74" y2="273.17"/></g></g></svg>